<?xml version="1.0" encoding="iso-8859-1"?>
<!-- Generator: Adobe Illustrator 19.0.0, SVG Export Plug-In . SVG Version: 6.00 Build 0)  -->
<svg version="1.1" id="Capa_1" xmlns="http://www.w3.org/2000/svg" xmlns:xlink="http://www.w3.org/1999/xlink" x="0px" y="0px"
	 viewBox="0 0 512 512" style="enable-background:new 0 0 512 512;" xml:space="preserve">
<path style="fill:#2196F3;" d="M448,64h-48V16c0-8.832-7.168-16-16-16H96C69.536,0,48,21.536,48,48v400c0,35.296,28.704,64,64,64
	h336c8.832,0,16-7.168,16-16V80C464,71.168,456.832,64,448,64z"/>
<g>
	<path style="fill:#FAFAFA;" d="M96,32h272v32H96c-8.832,0-16-7.168-16-16S87.168,32,96,32z"/>
	<path style="fill:#FAFAFA;" d="M256,160c-61.76,0-112,50.24-112,112c0,57.472,89.856,159.264,100.096,170.688
		c3.04,3.36,7.36,5.312,11.904,5.312s8.864-1.952,11.904-5.312C278.144,431.264,368,329.472,368,272C368,210.24,317.76,160,256,160z
		"/>
</g>
<circle style="fill:#2196F3;" cx="256" cy="272" r="48"/>
<g>
</g>
<g>
</g>
<g>
</g>
<g>
</g>
<g>
</g>
<g>
</g>
<g>
</g>
<g>
</g>
<g>
</g>
<g>
</g>
<g>
</g>
<g>
</g>
<g>
</g>
<g>
</g>
<g>
</g>
</svg>
